<svg xmlns="http://www.w3.org/2000/svg" version="1.1" xmlns:xlink="http://www.w3.org/1999/xlink" xmlns:svgjs="http://svgjs.dev/svgjs" width="100%" height="100%" viewBox="0 0 1000 600"><rect width="1000" height="600" x="0" y="0" fill="#455073"/><g><rect width="333.3333333333333" height="333.3333333333333" rx="13.333333333333334" ry="13.333333333333334" y="107.32396907123115" fill="#f28f38" transform="matrix(1.4688299474918396,0,0,1.4688299474918398,0,-102.44565483957997)" x="85.10175323486328"/><path d="M208.8489090838364 348.99064239567457L192.37961954096147 348.99064239567457L233.56789759334336 198.9906414768394L269.9689415738475 198.9906414768394L311.15721962622933 348.99064239567457L294.68793008335444 348.99064239567457L283.84890954325397 310.39168591676116L219.68792962393687 310.39168591676116L208.8489090838364 348.99064239567457ZM257.41374278156445 213.2921269116942L246.1230963856264 213.2921269116942L223.36115325141537 295.45792428373375L280.1756859157755 295.45792428373375L257.41374278156445 213.2921269116942Z " fill="#ffffff" transform="matrix(1.4688299474918396,0,0,1.4688299474918398,0,-102.44565483957997)"/><path d="M549.7789492932625 213.3265118866011L549.7789492932625 213.3265118866011Q518.181524180412 213.3265118866011 518.181524180412 237.14160822165698L518.181524180412 237.14160822165698Q518.181524180412 250.3949726439915 525.4664860814303 255.3393845366505Q532.7221911073441 260.313053304414 554.9574161867574 265.2574651970731Q577.1633843910663 270.2018770897321 586.43781379919 278.1012333679447Q595.7122432073137 286.0005896461573 595.7122432073137 304.1105953358374L595.7122432073137 304.1105953358374Q595.7122432073137 348.990641746127 549.1645549160681 348.990641746127L549.1645549160681 348.990641746127Q533.7754386111058 348.990641746127 510.6039935283487 345.39204610827454L510.6039935283487 345.39204610827454L503.0264628762855 344.3387986045129L504.6941047572415 330.8806360564469Q533.3658423596429 334.65477294492626 548.3161055380378 334.65477294492626L548.3161055380378 334.65477294492626Q579.4746775243211 334.65477294492626 579.4746775243211 305.36864096533054L579.4746775243211 305.36864096533054Q579.4746775243211 293.5781202982206 572.62856874987 288.4289102798301Q565.7824599754192 283.2504433863352 547.0580599085448 279.6811046235872L547.0580599085448 279.6811046235872Q522.3945141954587 274.41486710477875 512.0668372835732 266.10591457510327Q501.76841724679235 257.7677051703233 501.76841724679235 238.19485572541865L501.76841724679235 238.19485572541865Q501.76841724679235 198.99064308540042 548.7257017895008 198.99064308540042L548.7257017895008 198.99064308540042Q564.1148180944631 198.99064308540042 585.5893644211598 202.15038559668545L585.5893644211598 202.15038559668545L592.7572988217601 203.20363310044715L591.2944550665355 216.89585064934906Q562.0083230869398 213.3265118866011 549.7789492932625 213.3265118866011Z " fill="#ffffff" transform="matrix(1.4688299474918396,0,0,1.4688299474918398,0,-102.44565483957997)"/></g></svg>